<svg xmlns="http://www.w3.org/2000/svg" width="251" height="251" viewBox="0 0 251 251" version="1.1"><path d="M 10.200 11.200 C 7.464 13.936, 9.670 31.131, 14.152 42 C 15.399 45.025, 17.900 50.051, 19.710 53.168 C 21.519 56.286, 22.998 60.111, 22.995 61.668 C 22.986 66.970, 26.392 74.368, 31.103 79.279 C 33.732 82.019, 36.227 85.815, 36.921 88.129 C 37.713 90.774, 39.997 93.973, 43.497 97.341 C 51.563 105.103, 52.850 106.397, 57.405 111.324 C 59.711 113.820, 62.926 116.173, 64.549 116.553 C 66.172 116.934, 69.409 119.196, 71.743 121.579 C 74.282 124.172, 77.942 126.608, 80.857 127.643 L 85.728 129.373 86.279 141.936 C 87.819 177.047, 107.525 208.825, 142.288 232.257 C 151.959 238.775, 166.702 246.187, 169.242 245.807 C 173.785 245.128, 173.708 243.459, 167.769 213.843 L 162.104 185.597 168.239 180.049 C 178.990 170.325, 189.749 154.326, 195.911 138.901 C 198.583 132.211, 209.652 90.025, 211.460 79.640 C 211.904 77.088, 214.142 73.231, 218.066 68.254 C 221.330 64.115, 224 60.163, 224 59.471 C 224 58.031, 221.254 56.725, 219.938 57.539 C 219.453 57.838, 215.218 58.520, 210.527 59.053 L 201.998 60.022 196.266 55.353 C 193.114 52.785, 188.051 49.535, 185.017 48.130 C 180.090 45.850, 178.217 45.573, 167.500 45.541 C 156.587 45.509, 155.002 45.743, 150 48.121 C 146.975 49.559, 142.508 52.333, 140.074 54.284 L 135.647 57.833 132.574 55.534 C 126.987 51.357, 124.663 50.416, 67.166 29.048 C 52.500 23.597, 35.119 17.082, 28.542 14.569 C 16.205 9.855, 12.268 9.132, 10.200 11.200 M 16 19.938 C 16 24.608, 19.728 37.544, 23.280 45.198 C 28.324 56.069, 30.610 58.306, 39.205 60.788 C 46.940 63.021, 60.771 65.594, 70.167 66.548 C 76.021 67.142, 78.071 68.866, 75.479 71.017 C 73.607 72.571, 52.964 69.930, 40.178 66.500 C 35.051 65.125, 30.674 64, 30.453 64 C 30.231 64, 30.497 65.178, 31.045 66.618 C 32.638 70.807, 37.180 76.585, 40.868 79.112 C 44.143 81.356, 45.034 81.449, 63.817 81.511 C 75.394 81.549, 83.483 81.968, 83.663 82.538 C 83.830 83.067, 83.541 84.175, 83.020 85 C 82.231 86.248, 78.869 86.500, 63.036 86.500 C 52.566 86.500, 44 86.672, 44 86.882 C 44.001 88.264, 48.379 93.904, 50.896 95.765 C 54.939 98.754, 62.898 98.710, 78 95.616 C 89.061 93.349, 92 93.461, 92 96.147 C 92 97.778, 82.423 100.250, 63.594 103.479 L 59.688 104.149 62.867 107.325 C 65.682 110.137, 66.643 110.484, 71.273 110.361 C 74.567 110.273, 80.013 108.889, 86 106.618 C 96.895 102.485, 100 102.102, 100 104.891 C 100 106.380, 97.421 107.796, 87.881 111.547 L 75.761 116.311 78.131 118.153 C 79.434 119.166, 82.114 120.495, 84.087 121.106 C 87.468 122.155, 88.116 121.950, 95.375 117.544 C 103.075 112.870, 106.219 112.181, 106.770 115.046 C 107.024 116.364, 103.616 118.970, 95 124.048 C 92.683 125.413, 92.913 151.390, 95.314 159.500 C 97.874 168.148, 100.950 175.839, 103.914 181 L 106.498 185.500 107.686 178 C 108.340 173.875, 108.903 170.387, 108.937 170.250 C 109.093 169.628, 112.933 170.083, 113.360 170.773 C 113.623 171.199, 113.121 176.343, 112.245 182.206 L 110.652 192.864 114.771 198.182 C 120.093 205.054, 130.509 215.131, 129.570 212.500 C 127.521 206.757, 123 189.994, 123 188.138 C 123 186.695, 123.625 186, 124.922 186 C 126.881 186, 128.205 189.525, 135.083 213.069 L 137.294 220.639 144.887 225.746 C 149.063 228.555, 152.591 230.742, 152.727 230.607 C 152.862 230.471, 150.063 221.617, 146.506 210.930 C 139.514 189.921, 138.796 186, 141.942 186 C 143.593 186, 145.043 189.559, 151.620 209.750 C 158.762 231.678, 161.201 237, 164.111 237 C 165.391 237, 165.210 233.796, 163.529 226.706 C 162.305 221.539, 156.158 190.576, 145.036 133.545 C 143.002 123.113, 143.340 121, 147.045 121 C 149.405 121, 149.844 122.593, 155.580 152 C 158.208 165.475, 160.513 176.697, 160.700 176.938 C 161.303 177.710, 170.058 168.702, 175.056 162.167 C 181.577 153.641, 189.367 138.214, 192.347 127.927 C 196.068 115.079, 205 77.825, 205 75.152 C 205 74.547, 202.349 70.971, 199.109 67.207 C 190.633 57.359, 181.723 52.764, 170 52.196 C 165.325 51.969, 159.700 52.271, 157.500 52.867 C 153.062 54.069, 142 60.636, 142 62.068 C 142 62.571, 143.531 64.989, 145.403 67.441 C 147.274 69.892, 149.628 74.284, 150.632 77.199 C 155.002 89.876, 150.967 110.843, 144.627 108.410 C 142.577 107.624, 142.576 105.267, 144.622 98.229 C 147.650 87.813, 144.871 77.155, 136.862 68.466 C 128.876 59.803, 124.403 57.517, 93 46.060 C 83.459 42.579, 66.101 36.079, 29.250 22.189 L 16 17.195 16 19.938 M 30.336 39.567 C 30.005 40.429, 30.145 41.545, 30.646 42.046 C 31.815 43.215, 48.183 50.346, 58.318 54.102 C 66.664 57.195, 69.495 57.625, 70.527 55.956 C 71.707 54.047, 69.062 52.301, 60.741 49.494 C 56.208 47.965, 48.054 44.754, 42.621 42.357 C 31.529 37.465, 31.174 37.384, 30.336 39.567 M 178.201 62.028 C 175.402 64.635, 174.451 68.499, 175.852 71.574 C 176.813 73.684, 176.707 74, 175.034 74 C 172.136 74, 168.076 78.090, 167.382 81.710 C 166.867 84.394, 167.264 85.418, 169.806 87.960 C 177.587 95.740, 194.013 88.059, 188.848 79.056 C 187.467 76.649, 187.545 76.364, 190.190 74.174 C 196.176 69.219, 192.301 60, 184.234 60 C 181.742 60, 179.607 60.717, 178.201 62.028 M 179.446 66.087 C 178.416 67.755, 180.733 69.667, 182.113 68.287 C 183.267 67.133, 182.545 65, 181 65 C 180.515 65, 179.816 65.489, 179.446 66.087" stroke="none" fill="#FF8F00" fill-rule="evenodd"/></svg>