<?xml version="1.0" encoding="UTF-8"?>
<svg xmlns="http://www.w3.org/2000/svg" xmlns:xlink="http://www.w3.org/1999/xlink" width="30px" height="30px" viewBox="0 0 30 30" version="1.1">
<g id="surface1">
<path style=" stroke:none;fill-rule:evenodd;fill:rgb(100%,56.078434%,0%);fill-opacity:1;" d="M 1.21875 1.339844 C 0.890625 1.664062 1.15625 3.722656 1.691406 5.019531 C 1.839844 5.382812 2.140625 5.980469 2.355469 6.355469 C 2.570312 6.726562 2.75 7.183594 2.75 7.371094 C 2.746094 8.003906 3.15625 8.886719 3.71875 9.476562 C 4.03125 9.804688 4.328125 10.257812 4.414062 10.535156 C 4.507812 10.847656 4.78125 11.230469 5.199219 11.632812 C 6.164062 12.5625 6.316406 12.714844 6.859375 13.304688 C 7.136719 13.605469 7.519531 13.886719 7.714844 13.929688 C 7.910156 13.976562 8.296875 14.246094 8.574219 14.53125 C 8.878906 14.839844 9.316406 15.132812 9.664062 15.257812 L 10.246094 15.464844 L 10.3125 16.964844 C 10.496094 21.160156 12.851562 24.960938 17.007812 27.761719 C 18.164062 28.539062 19.925781 29.425781 20.226562 29.378906 C 20.769531 29.296875 20.761719 29.097656 20.050781 25.558594 L 19.375 22.183594 L 20.109375 21.519531 C 21.394531 20.359375 22.679688 18.445312 23.414062 16.601562 C 23.734375 15.800781 25.058594 10.761719 25.273438 9.519531 C 25.328125 9.214844 25.59375 8.753906 26.0625 8.15625 C 26.453125 7.664062 26.773438 7.191406 26.773438 7.109375 C 26.773438 6.9375 26.445312 6.78125 26.289062 6.878906 C 26.230469 6.914062 25.722656 6.996094 25.164062 7.058594 L 24.144531 7.175781 L 23.457031 6.617188 C 23.082031 6.308594 22.476562 5.921875 22.113281 5.753906 C 21.523438 5.480469 21.300781 5.445312 20.019531 5.441406 C 18.714844 5.4375 18.527344 5.46875 17.929688 5.75 C 17.566406 5.921875 17.03125 6.253906 16.742188 6.488281 L 16.210938 6.914062 L 15.84375 6.636719 C 15.175781 6.136719 14.898438 6.027344 8.027344 3.472656 C 6.273438 2.820312 4.199219 2.042969 3.410156 1.742188 C 1.9375 1.179688 1.464844 1.089844 1.21875 1.339844 M 1.914062 2.382812 C 1.914062 2.941406 2.359375 4.488281 2.78125 5.402344 C 3.386719 6.703125 3.660156 6.96875 4.6875 7.265625 C 5.609375 7.53125 7.261719 7.839844 8.386719 7.953125 C 9.085938 8.023438 9.332031 8.230469 9.019531 8.488281 C 8.796875 8.671875 6.332031 8.359375 4.800781 7.949219 C 4.1875 7.785156 3.667969 7.648438 3.640625 7.648438 C 3.613281 7.648438 3.644531 7.789062 3.710938 7.960938 C 3.902344 8.464844 4.445312 9.152344 4.882812 9.457031 C 5.277344 9.722656 5.382812 9.734375 7.628906 9.742188 C 9.011719 9.746094 9.976562 9.796875 10 9.863281 C 10.019531 9.929688 9.984375 10.0625 9.921875 10.160156 C 9.828125 10.308594 9.425781 10.339844 7.535156 10.339844 C 6.28125 10.339844 5.257812 10.359375 5.257812 10.382812 C 5.257812 10.550781 5.78125 11.222656 6.082031 11.445312 C 6.566406 11.804688 7.519531 11.796875 9.324219 11.429688 C 10.644531 11.15625 10.996094 11.171875 10.996094 11.492188 C 10.996094 11.6875 9.851562 11.980469 7.601562 12.367188 L 7.132812 12.449219 L 7.515625 12.828125 C 7.851562 13.164062 7.964844 13.207031 8.519531 13.191406 C 8.914062 13.179688 9.5625 13.015625 10.277344 12.742188 C 11.582031 12.25 11.953125 12.203125 11.953125 12.535156 C 11.953125 12.714844 11.644531 12.882812 10.503906 13.332031 L 9.054688 13.902344 L 9.339844 14.121094 C 9.492188 14.242188 9.8125 14.402344 10.050781 14.476562 C 10.453125 14.601562 10.53125 14.574219 11.398438 14.050781 C 12.320312 13.492188 12.695312 13.40625 12.761719 13.75 C 12.792969 13.90625 12.382812 14.21875 11.355469 14.828125 C 11.078125 14.988281 11.105469 18.09375 11.390625 19.0625 C 11.699219 20.097656 12.066406 21.015625 12.421875 21.632812 L 12.730469 22.171875 L 12.871094 21.273438 C 12.949219 20.78125 13.015625 20.363281 13.019531 20.347656 C 13.039062 20.273438 13.496094 20.328125 13.550781 20.410156 C 13.582031 20.460938 13.519531 21.078125 13.414062 21.777344 L 13.226562 23.050781 L 13.71875 23.6875 C 14.355469 24.507812 15.597656 25.710938 15.488281 25.398438 C 15.242188 24.710938 14.703125 22.707031 14.703125 22.488281 C 14.703125 22.3125 14.777344 22.230469 14.929688 22.230469 C 15.164062 22.230469 15.324219 22.652344 16.144531 25.464844 L 16.410156 26.371094 L 17.316406 26.980469 C 17.816406 27.316406 18.238281 27.578125 18.253906 27.5625 C 18.269531 27.546875 17.9375 26.488281 17.511719 25.210938 C 16.675781 22.699219 16.589844 22.230469 16.964844 22.230469 C 17.164062 22.230469 17.335938 22.65625 18.121094 25.070312 C 18.976562 27.691406 19.265625 28.328125 19.613281 28.328125 C 19.769531 28.328125 19.746094 27.945312 19.546875 27.097656 C 19.398438 26.480469 18.664062 22.777344 17.335938 15.960938 C 17.09375 14.714844 17.132812 14.460938 17.574219 14.460938 C 17.855469 14.460938 17.910156 14.652344 18.59375 18.167969 C 18.910156 19.777344 19.183594 21.121094 19.207031 21.148438 C 19.277344 21.242188 20.324219 20.164062 20.921875 19.382812 C 21.703125 18.363281 22.632812 16.519531 22.988281 15.289062 C 23.433594 13.753906 24.503906 9.300781 24.503906 8.980469 C 24.503906 8.910156 24.183594 8.484375 23.796875 8.03125 C 22.785156 6.855469 21.71875 6.304688 20.320312 6.238281 C 19.761719 6.210938 19.085938 6.246094 18.824219 6.320312 C 18.292969 6.460938 16.972656 7.246094 16.972656 7.417969 C 16.972656 7.480469 17.15625 7.769531 17.378906 8.0625 C 17.601562 8.355469 17.882812 8.878906 18.003906 9.226562 C 18.527344 10.742188 18.042969 13.25 17.285156 12.957031 C 17.042969 12.863281 17.039062 12.582031 17.285156 11.742188 C 17.648438 10.496094 17.316406 9.222656 16.359375 8.183594 C 15.402344 7.148438 14.867188 6.875 11.117188 5.503906 C 9.976562 5.089844 7.902344 4.3125 3.496094 2.652344 L 1.914062 2.054688 L 1.914062 2.382812 M 3.625 4.730469 C 3.585938 4.832031 3.601562 4.964844 3.664062 5.027344 C 3.800781 5.164062 5.757812 6.015625 6.96875 6.464844 C 7.96875 6.835938 8.304688 6.886719 8.429688 6.6875 C 8.570312 6.460938 8.253906 6.25 7.261719 5.914062 C 6.71875 5.734375 5.742188 5.347656 5.09375 5.0625 C 3.769531 4.476562 3.726562 4.46875 3.625 4.730469 M 21.300781 7.414062 C 20.964844 7.726562 20.851562 8.1875 21.019531 8.554688 C 21.132812 8.808594 21.121094 8.84375 20.921875 8.84375 C 20.574219 8.84375 20.089844 9.332031 20.003906 9.765625 C 19.945312 10.085938 19.992188 10.210938 20.296875 10.511719 C 21.226562 11.441406 23.1875 10.523438 22.570312 9.449219 C 22.40625 9.160156 22.414062 9.128906 22.730469 8.867188 C 23.449219 8.273438 22.984375 7.171875 22.019531 7.171875 C 21.722656 7.171875 21.46875 7.257812 21.300781 7.414062 M 21.449219 7.898438 C 21.324219 8.097656 21.601562 8.328125 21.765625 8.160156 C 21.90625 8.023438 21.816406 7.769531 21.632812 7.769531 C 21.574219 7.769531 21.492188 7.828125 21.449219 7.898438 "/>
</g>
</svg>
